<?xml version="1.0" encoding="UTF-8"?>
<svg width="32px" height="30px" viewBox="0 0 32 30" version="1.1" xmlns="http://www.w3.org/2000/svg" xmlns:xlink="http://www.w3.org/1999/xlink">
    <!-- Generator: Sketch 45.2 (43514) - http://www.bohemiancoding.com/sketch -->
    <title>alarm</title>
    <desc>Created with Sketch.</desc>
    <defs>
        <linearGradient x1="0%" y1="0%" x2="100%" y2="100%" id="linearGradient-1">
            <stop stop-color="#FAD961" offset="0%"></stop>
            <stop stop-color="#50E3CC" offset="100%"></stop>
        </linearGradient>
        <path d="M12.9998846,46.9595 C12.6478846,46.9595 12.3228846,46.7745 12.1418846,46.4735 C11.9608846,46.1715 11.9528846,45.7975 12.1188846,45.4865 L27.1188846,17.4875 C27.4658846,16.8375 28.5338846,16.8375 28.8808846,17.4875 L43.7968846,45.3305 C43.9368846,45.5025 44.0198846,45.7215 44.0198846,45.9595 C44.0198846,46.5125 43.5718846,46.9595 43.0198846,46.9595 L12.9998846,46.9595 Z M41.3298846,44.9595 L27.9998846,20.0775 L14.6698846,44.9595 L41.3298846,44.9595 Z M26.9998846,36.9595 L26.9998846,28.9595 C26.9998846,28.4075 27.4478846,27.9595 27.9998846,27.9595 C28.5518846,27.9595 28.9998846,28.4075 28.9998846,28.9595 L28.9998846,36.9595 C28.9998846,37.5125 28.5518846,37.9595 27.9998846,37.9595 C27.4478846,37.9595 26.9998846,37.5125 26.9998846,36.9595 Z M27.2898846,41.6695 C27.1098846,41.4795 26.9998846,41.2195 26.9998846,40.9595 C26.9998846,40.6995 27.1098846,40.4395 27.2898846,40.2495 C27.6698846,39.8795 28.3398846,39.8795 28.7098846,40.2495 C28.8898846,40.4395 28.9998846,40.6995 28.9998846,40.9595 C28.9998846,41.2195 28.8898846,41.4795 28.7098846,41.6695 C28.5198846,41.8505 28.2598846,41.9595 27.9998846,41.9595 C27.7398846,41.9595 27.4798846,41.8505 27.2898846,41.6695 Z" id="path-2"></path>
    </defs>
    <g id="Lichnyj-kabinet" stroke="none" stroke-width="1" fill="none" fill-rule="evenodd">
        <g id="Platjozh-prosrochen-3" transform="translate(-263.000000, -283.000000)">
            <g id="Notification/" transform="translate(251.000000, 266.000000)">
                <g id="alarm">
                    <use fill="#50E3C2" xlink:href="#path-2"></use>
                    <use fill="url(#linearGradient-1)" style="mix-blend-mode: overlay;" xlink:href="#path-2"></use>
                </g>
            </g>
        </g>
    </g>
</svg>